<svg xmlns="http://www.w3.org/2000/svg" width="309" height="368" viewBox="0 0 309 368">
  <g id="humaaans_sitting-1" data-name="humaaans/sitting-1" transform="translate(0)">
    <g id="A-Human_Sitting" data-name="A-Human/Sitting" transform="translate(0 0)">
      <g id="Head_Front_Airy" data-name="Head/Front/Airy">
        <g id="Head" transform="translate(123 38)">
          <path id="Path_10" data-name="Path 10" d="M8.262,34.49C3.654,29.081.536,22.453,1.057,15.026c1.5-21.4,31.292-16.693,37.087-5.892s5.106,38.2-2.383,40.13c-2.987.77-9.349-1.116-15.825-5.019L24,73H0Z" fill="#b28b67" fill-rule="evenodd"/>
        </g>
        <path id="hair" d="M147.464,34.685c-3.163-.519-11.68-.875-13.251-.875-1,0-2.092.229-2.686-.692-.487-.755-.308-2.031-.454-2.907-.169-1.017-.408-2.022-.651-3.023a30.745,30.745,0,0,0-3.192-8.109,24.924,24.924,0,0,0-11.814-10.7A37.937,37.937,0,0,0,97.481,5.916c-6.437.522-12.265,2.647-18.342,4.647a38.442,38.442,0,0,1-17.916,1.725c-6.1-.938-10.715-4.246-15.863-7.385C40.089,1.688,34.066-.414,27.835.069,22.02.52,16.659,2.922,11.85,6.129c-4.5,3-8.212,6.612-10.308,11.695C-.713,23.291-.711,29.292,3,34.123c5.375,7,15.353,8.814,23.654,8.634A45.191,45.191,0,0,0,40.7,40.183c6.046-2.126,11.27-5.73,16.926-8.655A44.044,44.044,0,0,1,65.9,28.217c2.791-.788,5.539-1.149,8.066.536A38.09,38.09,0,0,0,82.092,33.4a26.207,26.207,0,0,0,9.166,1.646c6.081-.047,12.075-1.942,17.98-3.211,4.816-1.035,9.969-2.066,14.879-1.071,2.049.415,5.041,1.272,5.781,3.4-12.454,2.257-17.346,17.66-13.835,28.967,1.9,6.1,13.286,13.237,17.715,10.029,2.806-2.033,1.1-4.7,0-6.463-2.111-3.373-2.833-7.707,1.073-10.055,3.37-2.026,6.913,2.785,6.98,2.779.926-.073,8.929-4.6,14.443-11.2,5.439.323,6.264-3.264,4.966-6.2S151.834,35.4,147.464,34.685Z" fill="#191847" fill-rule="evenodd"/>
      </g>
      <g id="Bottom_Sitting_Sweat-Pants" data-name="Bottom/Sitting/Sweat-Pants" transform="translate(36 194)">
        <g id="Objects_Seat_Ball" data-name="Objects/Seat/Ball" transform="translate(0 27)">
          <ellipse id="Ballsy-Ball" cx="77" cy="73.5" rx="77" ry="73.5" fill="#6cb3e5"/>
        </g>
        <path id="Skin" d="M152.371,130.494c-12.813-28.358-22.079-53.052-25.8-66.08C120.2,42.106,115.36,22.477,114.135,15.146c-2.92-17.481,22.462-18.5,25.817-9.811,5.078,13.149,13.943,56.351,24.6,121.605ZM3.75,41.5c11.756-4.647,52.924-19.189,72.779-23.3,5.706-1.182,11.236-2.28,16.435-3.273,15.454-2.95,23.461,24.929,8.577,27.071C64.474,47.328,11.925,52.837,7.428,53.455,1.125,54.322-3.638,44.418,3.75,41.5Z" transform="translate(70.138 32.166)" fill="#b28b67" fill-rule="evenodd"/>
        <path id="Leg-Back" d="M63.587,39.416,0,7.047V0H7.562q92.277,23.514,94.307,30.138c.014.048.028.1.04.143.031.041.061.082.091.123,12.191,16.767,19.493,98.624,21.889,104.753l-23.361,3.485C91.591,105.5,63,82.418,63.759,42.729A13.029,13.029,0,0,1,63.587,39.416Z" transform="translate(109)" fill="#034548" fill-rule="evenodd"/>
        <path id="Leg-Front" d="M50.283,58.64c-5.818-1.165-11.176-2.2-15.76-3.008C4.909,50.438-3.726,34.586,1.38,0H55.942c8.913,2.56,55.232,21.985,79.265,32.316,15.906,6.838,10.892,31.488,1.884,37.9a.88.88,0,0,1-.5.781C88.137,91.083,49.8,80.545,37,83.912L31.077,65.228Z" transform="translate(64)" fill="#034548" fill-rule="evenodd"/>
        <g id="Accessories_Shoe_Flat-Sneaker" data-name="Accessories/Shoe/Flat-Sneaker" transform="matrix(0.438, 0.899, -0.899, 0.438, 82.628, 66.525)">
          <path id="shoe" d="M1.678,6.07A21.472,21.472,0,0,0,0,12.774a50.176,50.176,0,0,0,.9,7.894H57.3q2.2-7.268-2.538-7.848t-7.87-1.046L20.68.087a1,1,0,0,0-1.32.506l-.011.026L17.663,4.707a17.983,17.983,0,0,1-7.126,2.046,16.139,16.139,0,0,1-6.152-1.8h0a2,2,0,0,0-2.652.985Q1.7,6,1.678,6.07Z" transform="translate(0)" fill="#e4e4e4" fill-rule="evenodd"/>
        </g>
        <g id="Accessories_Shoe_Flat-Sneaker-2" data-name="Accessories/Shoe/Flat-Sneaker" transform="translate(215 151.332)">
          <path id="shoe-2" data-name="shoe" d="M1.678,6.07A21.472,21.472,0,0,0,0,12.774a50.177,50.177,0,0,0,.9,7.894H57.3q2.2-7.268-2.538-7.848T46.9,11.774L20.68.087a1,1,0,0,0-1.32.506l-.011.026L17.663,4.707a17.983,17.983,0,0,1-7.127,2.046,16.139,16.139,0,0,1-6.152-1.8h0a2,2,0,0,0-2.652.985Q1.7,6,1.678,6.07Z" fill="#e4e4e4" fill-rule="evenodd"/>
        </g>
      </g>
      <g id="Body_Jacket-2" data-name="Body/Jacket-2" transform="translate(11 89)">
        <path id="Skin-2" data-name="Skin" d="M196,30.617,232.235,14.7A85.831,85.831,0,0,1,250.623.282c1.767-.563,4.787-.733,1.565,3.973s-6.4,9.8-5.112,11.45,5.017-.171,6.49,2.511q1.475,2.682-18.859,6.417L207.57,45.439ZM49.508,35,70,39.066Q39.088,96.674,36.845,100.13c-3.365,5.185-.225,14.687.934,19.691-7.275,1.694-4.406-9.256-13.612-6.97-8.4,2.087-15.528,7.442-23.363.22-.963-.888-1.669-3.664,1.616-5.087C10.6,104.437,22.692,97.8,24.652,95.218Q28.662,89.944,49.508,35Z" transform="translate(0 47)" fill="#b28b67" fill-rule="evenodd"/>
        <path id="Coat-Back" d="M0,2.231,8.485,0C28.84,16.559,40.322,59.615,53.333,64.309c12.3,4.438,28.6-2.324,47.89-11.217l7.293,13.1c-16.386,21.165-53.5,41.082-69.953,33C12.254,86.28,1.767,32.855,0,2.231Z" transform="translate(125.889 3.11) rotate(5)" fill="#27d2dc" fill-rule="evenodd"/>
        <path id="Shirt" d="M0,114H76.511c3.5,0,2.838-5.048,2.332-7.6C73.011,77,50.241,45.312,50.241,3.461L28.172,0C9.918,29.358,3.6,65.5,0,114Z" transform="translate(88)" fill="#dde3e9" fill-rule="evenodd"/>
        <path id="Coat-Front" d="M55.369,84.233q-23.4,42.2-39.331,60.767L0,141.859Q15.5,45.757,89.748,0h8.738q29.719,101.305,16.386,135H46C47.09,118.563,50.583,101.181,55.369,84.233Z" transform="translate(25)" fill="#27d2dc" fill-rule="evenodd"/>
      </g>
    </g>
  </g>
</svg>
